<mxfile host="app.diagrams.net" modified="2020-11-16T04:03:28.460Z" agent="5.0 (Windows NT 10.0; Win64; x64) AppleWebKit/537.36 (KHTML, like Gecko) Chrome/86.0.4240.183 Safari/537.36" etag="_lBqh8yl97nUIZla8OEH" version="13.9.2" type="github">
  <diagram id="uTHmAtsP0MX1YoSz9jkZ" name="第1頁">
    <mxGraphModel dx="1422" dy="772" grid="1" gridSize="10" guides="1" tooltips="1" connect="1" arrows="1" fold="1" page="1" pageScale="1" pageWidth="827" pageHeight="1169" math="0" shadow="0">
      <root>
        <mxCell id="0" />
        <mxCell id="1" parent="0" />
        <mxCell id="fi2qA7SAcyXWBoN7yHB3-1" value="" style="ellipse;html=1;shape=startState;fillColor=#000000;strokeColor=#ff0000;shadow=0;" vertex="1" parent="1">
          <mxGeometry x="90" y="30" width="30" height="30" as="geometry" />
        </mxCell>
        <mxCell id="fi2qA7SAcyXWBoN7yHB3-2" value="" style="edgeStyle=orthogonalEdgeStyle;html=1;verticalAlign=bottom;endArrow=open;endSize=8;strokeColor=#ff0000;entryX=0.5;entryY=0;entryDx=0;entryDy=0;" edge="1" source="fi2qA7SAcyXWBoN7yHB3-1" parent="1" target="fi2qA7SAcyXWBoN7yHB3-3">
          <mxGeometry relative="1" as="geometry">
            <mxPoint x="105" y="120" as="targetPoint" />
          </mxGeometry>
        </mxCell>
        <mxCell id="fi2qA7SAcyXWBoN7yHB3-3" value="以TSB_PRD登入Mantis取得待上線清單" style="rounded=1;whiteSpace=wrap;html=1;arcSize=40;fontColor=#000000;fillColor=#ffffc0;strokeColor=#ff0000;glass=0;shadow=0;sketch=0;" vertex="1" parent="1">
          <mxGeometry x="45" y="120" width="120" height="40" as="geometry" />
        </mxCell>
        <mxCell id="fi2qA7SAcyXWBoN7yHB3-4" value="" style="edgeStyle=orthogonalEdgeStyle;html=1;verticalAlign=bottom;endArrow=open;endSize=8;strokeColor=#ff0000;" edge="1" source="fi2qA7SAcyXWBoN7yHB3-3" parent="1">
          <mxGeometry relative="1" as="geometry">
            <mxPoint x="105" y="220" as="targetPoint" />
          </mxGeometry>
        </mxCell>
      </root>
    </mxGraphModel>
  </diagram>
</mxfile>
